<svg width="175" height="170" viewBox="0 0 175 170" fill="none" xmlns="http://www.w3.org/2000/svg">
<ellipse cx="87.5" cy="85" rx="87.5" ry="85" fill="black"/>
<path d="M129.473 137.358L140.132 41.4884H87.8911H36L45.8393 137.358L87.8911 153L129.473 137.358Z" fill="white"/>
<path d="M66.8268 20.9516C66.8268 19.132 67.4523 17.7218 68.7033 16.721C69.9771 15.6974 71.8877 15.1857 74.4351 15.1857C76.1183 15.1857 77.5512 15.3449 78.734 15.6633V20.3716C77.4603 19.9849 76.1979 19.7916 74.9469 19.7916C73.7187 19.7916 72.9226 19.9394 72.5586 20.2351C72.1947 20.5081 72.0128 20.9175 72.0128 21.4634V32.927C72.0128 34.0188 72.8657 34.5647 74.5716 34.5647C76.3002 34.5647 77.7218 34.3941 78.8363 34.0529V38.6588C77.6081 39 76.1183 39.1706 74.3669 39.1706C71.8194 39.1706 69.9202 38.6702 68.6692 37.6694C67.441 36.6686 66.8268 35.2584 66.8268 33.4388V20.9516ZM80.3754 20.8834C80.3754 19.0638 80.9895 17.6649 82.2178 16.6869C83.446 15.6861 85.2088 15.1857 87.506 15.1857C89.8261 15.1857 91.5547 15.4245 92.692 15.9022V20.8151C91.3045 20.2238 89.7237 19.9281 87.9496 19.9281C87.0398 19.9281 86.4256 20.0759 86.1072 20.3716C85.7888 20.6445 85.6295 21.0426 85.6295 21.5657V22.0775C85.6295 22.7144 85.7319 23.192 85.9366 23.5105C86.1641 23.8061 86.6417 24.1473 87.3696 24.534L91.259 26.7175C93.1241 27.7411 94.0567 29.2764 94.0567 31.3235V33.4388C94.0567 35.2811 93.3743 36.7027 92.0096 37.7035C90.6449 38.6816 88.7229 39.1706 86.2437 39.1706C83.7872 39.1706 81.9334 38.909 80.6824 38.3859V33.4388C82.2291 34.0984 83.9805 34.4282 85.9366 34.4282C87.8927 34.4282 88.8708 33.8709 88.8708 32.7564V32.2446C88.8708 31.7215 88.757 31.3348 88.5296 31.0846C88.3249 30.8117 87.9268 30.516 87.3354 30.1976L83.6848 28.2187C81.4785 26.9905 80.3754 25.2618 80.3754 23.0328V20.8834ZM95.3686 20.8834C95.3686 19.0638 95.9827 17.6649 97.211 16.6869C98.4392 15.6861 100.202 15.1857 102.499 15.1857C104.819 15.1857 106.548 15.4245 107.685 15.9022V20.8151C106.298 20.2238 104.717 19.9281 102.943 19.9281C102.033 19.9281 101.419 20.0759 101.1 20.3716C100.782 20.6445 100.623 21.0426 100.623 21.5657V22.0775C100.623 22.7144 100.725 23.192 100.93 23.5105C101.157 23.8061 101.635 24.1473 102.363 24.534L106.252 26.7175C108.117 27.7411 109.05 29.2764 109.05 31.3235V33.4388C109.05 35.2811 108.368 36.7027 107.003 37.7035C105.638 38.6816 103.716 39.1706 101.237 39.1706C98.7804 39.1706 96.9267 38.909 95.6757 38.3859V33.4388C97.2224 34.0984 98.9738 34.4282 100.93 34.4282C102.886 34.4282 103.864 33.8709 103.864 32.7564V32.2446C103.864 31.7215 103.75 31.3348 103.523 31.0846C103.318 30.8117 102.92 30.516 102.329 30.1976L98.6781 28.2187C96.4718 26.9905 95.3686 25.2618 95.3686 23.0328V20.8834Z" fill="white"/>
<path d="M46.6592 49.0585H131.113L123.435 131.099L87.1411 141.27L55.0347 131.099V107.368H67.5981L71.0879 118.895L87.1411 123.641L108.08 118.895V99.9102H55.0347H50.149V82.2816H108.08V66.6871H50.149L46.6592 49.0585Z" fill="black"/>
</svg>
