<svg width="170" height="170" viewBox="0 0 170 170" fill="none" xmlns="http://www.w3.org/2000/svg">
<path d="M85.0025 166.005C129.739 166.005 166.005 129.739 166.005 85.0025C166.005 40.266 129.739 4 85.0025 4C40.266 4 4 40.266 4 85.0025C4 129.739 40.266 166.005 85.0025 166.005Z" fill="black"/>
<path d="M133.601 80.4976L89.5025 36.3986C86.9777 33.8738 82.854 33.8738 80.2871 36.3986L71.1139 45.5718L82.7277 57.1857C85.4208 56.26 88.5346 56.8911 90.6807 59.0372C92.8267 61.1832 93.4579 64.3392 92.5322 67.0322L103.725 78.2253C106.418 77.2996 109.574 77.8887 111.72 80.0768C114.75 83.1065 114.75 87.9877 111.72 91.0174C108.691 94.0471 103.809 94.0471 100.78 91.0174C98.5074 88.7451 97.9604 85.4208 99.0965 82.6015L88.6609 72.1659V99.6436C89.3762 100.022 90.0916 100.485 90.7228 101.116C93.7525 104.146 93.7525 109.027 90.7228 112.057C87.6931 115.087 82.8119 115.087 79.7822 112.057C76.7525 109.027 76.7525 104.146 79.7822 101.116C80.5396 100.359 81.3812 99.8119 82.3069 99.4332V71.703C81.3812 71.3243 80.5396 70.7773 79.7822 70.0199C77.5099 67.7476 76.9629 64.3812 78.099 61.5619L66.6535 50.1164L36.3985 80.3293C33.8738 82.854 33.8738 86.9778 36.3985 89.5446L80.4975 133.602C83.0223 136.126 87.146 136.126 89.7129 133.602L133.601 89.7129C136.126 87.1461 136.126 83.0223 133.601 80.4976Z" fill="white"/>
</svg>
