<svg width="170" height="170" viewBox="0 0 170 170" fill="none" xmlns="http://www.w3.org/2000/svg">
<rect width="170" height="170" rx="85" fill="black"/>
<path d="M41.3496 58.7642C32.5011 71.57 33.5954 88.227 40.3615 101.87C40.5179 102.197 40.6898 102.518 40.8556 102.839L41.1682 103.452C41.2308 103.572 41.2996 103.688 41.3652 103.805C41.4809 104.025 41.5997 104.226 41.7185 104.44L42.3658 105.554L42.7347 106.165L43.4851 107.345L43.804 107.842C44.1573 108.37 44.5169 108.899 44.889 109.415L45.1016 109.704C45.4239 110.15 45.7533 110.591 46.0896 111.026L46.4648 111.504L47.3778 112.637L47.728 113.058C48.1439 113.552 48.5722 114.043 49.0006 114.521C49.0443 114.569 49.0631 114.584 49.0756 114.603C49.5004 115.067 49.9319 115.524 50.3701 115.975L50.7859 116.397L51.8177 117.416L52.2398 117.825C52.7042 118.266 53.1764 118.698 53.6562 119.122L55.207 120.443L55.7386 120.871L56.811 121.714L57.3832 122.155L58.587 123.023L59.1498 123.423C59.5344 123.69 59.9252 123.945 60.3192 124.2L60.8257 124.54C61.4292 124.925 62.039 125.301 62.6548 125.666L63.1613 125.981L64.5371 126.755C64.7872 126.89 65.0436 127.019 65.2968 127.148L66.2786 127.661L66.5069 127.771L66.9133 127.966L68.4704 128.69L68.7987 128.838C69.3998 129.101 70.0054 129.354 70.6153 129.596L71.0531 129.772L72.7665 130.411L72.9854 130.486C73.618 130.705 74.2538 130.915 74.8926 131.116L75.3554 131.254C75.9807 131.452 76.6561 131.695 77.3252 131.814C120.142 139.671 132.574 105.919 132.574 105.919C122.131 119.612 103.589 123.224 85.9861 119.203C85.3201 119.052 84.6729 118.845 84.0257 118.65L83.5379 118.502C82.905 118.306 82.2754 118.099 81.6494 117.882L81.3899 117.787C80.8327 117.588 80.2781 117.382 79.7265 117.168L79.2575 116.979C78.6531 116.74 78.0537 116.488 77.4596 116.224L77.1001 116.066L75.5836 115.355L75.1459 115.144C74.7519 114.956 74.3642 114.745 73.9734 114.515L73.1917 114.106C72.7165 113.854 72.2537 113.584 71.7847 113.313L71.3095 113.046C70.6939 112.68 70.0841 112.305 69.4803 111.919C69.3146 111.812 69.152 111.699 68.9863 111.589L67.6856 110.717C67.5418 110.623 67.373 110.516 67.2667 110.422L66.0347 109.525L65.4876 109.11L64.3776 108.235L63.8836 107.835L62.5016 106.662C62.4513 106.618 62.3992 106.576 62.3453 106.536L60.8913 105.205L60.4849 104.809L59.4468 103.77L59.0404 103.361C58.6026 102.911 58.1774 102.458 57.7897 101.996C57.7678 101.974 57.7459 101.952 57.7271 101.926C57.2844 101.437 56.8508 100.94 56.4264 100.435L56.1138 100.026L55.1758 98.8619L54.8631 98.4308L53.7813 96.9835C43.9697 83.605 40.4616 65.1105 48.2595 49.9448L41.3496 58.7642ZM68.8331 47.9783C62.4297 57.2508 62.7767 69.6885 67.7701 79.4675C68.6068 81.1156 69.5532 82.705 70.6028 84.2248C71.5627 85.6092 72.6258 87.2548 73.8984 88.3655C74.3611 88.8783 74.8426 89.3723 75.3366 89.8663L75.7118 90.2439C76.1897 90.7128 76.6787 91.1702 77.1782 91.6157C77.2001 91.6314 77.2158 91.6535 77.2408 91.6692C77.8098 92.1726 78.3851 92.6131 78.9698 93.1102L79.3575 93.4154C79.9441 93.8707 80.5426 94.3103 81.1523 94.7338L81.2054 94.7715C81.4743 94.9603 81.7495 95.1334 82.0246 95.3159C82.1559 95.4008 82.281 95.4921 82.4123 95.5739C82.8494 95.8561 83.2925 96.1288 83.7411 96.3919L83.9288 96.5021L85.1044 97.1313C85.242 97.21 85.4171 97.2761 85.5234 97.3516L86.3457 97.7795C86.3863 97.8015 86.4301 97.8173 86.4707 97.8361C87.0347 98.1188 87.6061 98.3863 88.1842 98.6385L88.5594 98.7958C89.0251 98.9947 89.4942 99.1857 89.9664 99.3684L90.5667 99.5887C90.9948 99.7453 91.4253 99.8953 91.858 100.039L92.4427 100.227C93.0587 100.416 93.6934 100.668 94.3093 100.772C127.368 106.284 135 80.6348 135 80.6348C128.121 90.6089 114.802 95.3599 100.581 91.6472C99.953 91.4808 99.3285 91.2993 98.7086 91.1028C98.521 91.0462 98.3334 90.9833 98.1458 90.9204L96.8326 90.4673L96.2072 90.247C95.7352 90.0638 95.2662 89.8728 94.8002 89.6744L94.4188 89.5171C93.8371 89.2626 93.2616 88.994 92.6928 88.7116L91.8268 88.2711L91.3265 88.0131C90.9586 87.8121 90.5938 87.6055 90.2321 87.3932L89.9695 87.2454C89.5222 86.9817 89.0802 86.7089 88.6438 86.4273C88.5093 86.3423 88.378 86.248 88.2436 86.1599L87.3837 85.5872C86.7781 85.1648 86.1839 84.7263 85.6015 84.272L85.1951 83.9574C78.9417 79.0112 74.0391 72.2528 71.694 64.5945C69.2365 56.6498 69.7649 47.7298 74.0234 40.4931L68.8331 47.9783ZM91.9456 39.9173C88.1748 45.5336 87.7996 52.4494 90.4197 58.6226C93.1806 65.1765 98.8399 70.3146 105.447 72.7814L106.266 73.096L106.628 73.2093L107.807 73.5239C126.061 77.0731 131.007 64.0973 132.33 62.1875C127.993 68.4708 120.705 69.9779 111.762 67.7943C111.056 67.6213 110.28 67.3633 109.599 67.121C108.724 66.809 107.866 66.4509 107.029 66.0481C105.439 65.2789 103.93 64.3524 102.523 63.2824C94.522 57.1752 89.5505 45.4895 94.7721 36" fill="white"/>
</svg>
