<svg width="170" height="170" viewBox="0 0 170 170" fill="none" xmlns="http://www.w3.org/2000/svg">
<rect width="170" height="170" rx="85" fill="black"/>
<path fill-rule="evenodd" clip-rule="evenodd" d="M55.5 73.2C59.4327 57.4673 69.2673 49.6 85 49.6C108.6 49.6 111.55 67.3 123.35 70.25C131.217 72.2173 138.1 69.2673 144 61.4C140.067 77.1327 130.233 85 114.5 85C90.9 85 87.95 67.3 76.15 64.35C68.2827 62.3827 61.4 65.3327 55.5 73.2ZM26 108.6C29.9327 92.8673 39.7673 85 55.5 85C79.1 85 82.05 102.7 93.85 105.65C101.717 107.617 108.6 104.667 114.5 96.8C110.567 112.533 100.733 120.4 85 120.4C61.4 120.4 58.45 102.7 46.65 99.75C38.7827 97.7827 31.9 100.733 26 108.6Z" fill="url(#paint0_linear_5_111)"/>
<defs>
<linearGradient id="paint0_linear_5_111" x1="26" y1="-13.3327" x2="144" y2="183.333" gradientUnits="userSpaceOnUse">
<stop stop-color="white"/>
<stop offset="1" stop-color="white"/>
</linearGradient>
</defs>
</svg>
