<svg width="170" height="170" viewBox="0 0 170 170" fill="none" xmlns="http://www.w3.org/2000/svg">
<path d="M85 170C131.944 170 170 131.944 170 85C170 38.0558 131.944 0 85 0C38.0558 0 0 38.0558 0 85C0 131.944 38.0558 170 85 170Z" fill="black"/>
<path d="M154.12 134.445C154.078 134.344 154.043 134.24 153.996 134.141C153.912 133.908 153.826 133.68 153.721 133.459C153.638 133.226 153.551 133 153.446 132.779C153.363 132.544 153.276 132.317 153.171 132.098C153.088 131.866 153.001 131.638 152.896 131.418C152.813 131.183 152.726 130.957 152.621 130.737C152.539 130.506 152.451 130.277 152.347 130.057C152.264 129.823 152.177 129.596 152.072 129.375C151.989 129.143 151.902 128.914 151.797 128.694C151.714 128.463 151.627 128.234 151.522 128.014C151.439 127.782 151.352 127.554 151.247 127.334C151.166 127.103 151.08 126.877 150.975 126.658C150.892 126.423 150.805 126.194 150.698 125.971C150.616 125.739 150.528 125.512 150.423 125.291C150.341 125.058 150.253 124.83 150.149 124.611C150.066 124.378 149.979 124.152 149.874 123.931C149.791 123.698 149.704 123.47 149.599 123.251C149.516 123.018 149.429 122.789 149.324 122.569C149.241 122.336 149.154 122.109 149.049 121.889C148.966 121.655 148.879 121.429 148.774 121.209C148.692 120.975 148.605 120.748 148.499 120.527C148.417 120.294 148.33 120.066 148.224 119.846C148.142 119.612 148.054 119.386 147.95 119.166C147.867 118.932 147.779 118.704 147.676 118.485C147.592 118.252 147.506 118.025 147.401 117.805C147.317 117.571 147.231 117.344 147.126 117.123C147.043 116.892 146.958 116.669 146.853 116.449C146.77 116.214 146.683 115.984 146.577 115.762C146.494 115.53 146.407 115.302 146.302 115.082C146.219 114.85 146.132 114.621 146.027 114.401C145.944 114.167 145.857 113.94 145.752 113.719C145.669 113.487 145.582 113.26 145.478 113.039C145.394 112.804 145.308 112.578 145.203 112.358C145.119 112.127 145.033 111.898 144.928 111.678C144.844 111.444 144.758 111.217 144.653 110.998C144.569 110.766 144.483 110.538 144.378 110.318C144.294 110.084 144.208 109.856 144.103 109.635C144.019 109.403 143.933 109.176 143.828 108.955C143.746 108.723 143.658 108.496 143.553 108.275C143.471 108.042 143.383 107.813 143.278 107.593C143.196 107.362 143.108 107.133 143.003 106.913C142.921 106.679 142.833 106.452 142.728 106.233C142.647 106.002 142.561 105.776 142.456 105.558C142.374 105.322 142.286 105.093 142.18 104.873C142.097 104.639 142.01 104.412 141.905 104.191C141.823 103.959 141.735 103.732 141.63 103.511C141.548 103.279 141.46 103.051 141.355 102.83C141.273 102.596 141.185 102.369 141.08 102.149C140.998 101.916 140.911 101.689 140.805 101.469C140.723 101.234 140.636 101.008 140.53 100.787C140.448 100.554 140.36 100.325 140.255 100.107C140.173 99.8736 140.085 99.6465 139.982 99.4261C139.898 99.1923 139.81 98.9652 139.707 98.7461C139.623 98.5136 139.535 98.2852 139.432 98.0647C139.348 97.831 139.261 97.6039 139.157 97.3847C139.073 97.1523 138.987 96.9252 138.882 96.7047C138.798 96.471 138.712 96.2426 138.607 96.0221C138.525 95.791 138.44 95.5679 138.335 95.3501C138.251 95.1136 138.165 94.8839 138.059 94.6621C137.975 94.4283 137.889 94.1999 137.784 93.9821C137.7 93.7483 137.614 93.5226 137.509 93.3021C137.425 93.067 137.339 92.8399 137.234 92.6208C137.15 92.3883 137.064 92.1612 136.959 91.9408C136.875 91.7057 136.789 91.4799 136.684 91.2594C136.6 91.0283 136.514 90.7999 136.409 90.5794C136.325 90.347 136.239 90.1199 136.134 89.8994C136.05 89.667 135.964 89.4372 135.859 89.2168C135.777 88.9857 135.689 88.7572 135.584 88.5368C135.502 88.303 135.414 88.0759 135.309 87.8554C135.227 87.623 135.139 87.3959 135.034 87.1754C134.952 86.9404 134.864 86.7146 134.76 86.4941C134.677 86.263 134.59 86.0346 134.485 85.8141C134.404 85.583 134.317 85.3572 134.212 85.1394C134.13 84.9044 134.042 84.6759 133.936 84.4541C133.854 84.2204 133.766 83.9933 133.661 83.7741C133.579 83.5417 133.491 83.3146 133.386 83.0941C133.304 82.8617 133.218 82.6346 133.111 82.4141C133.029 82.1804 132.943 81.9533 132.836 81.7328C132.754 81.5004 132.666 81.2733 132.561 81.0528C132.479 80.819 132.391 80.5919 132.287 80.3728C132.204 80.1404 132.117 79.9133 132.012 79.6928C131.929 79.459 131.842 79.2319 131.737 79.0128C131.654 78.7804 131.567 78.5533 131.463 78.3328C131.379 78.099 131.292 77.8719 131.188 77.6528C131.105 77.4204 131.018 77.1933 130.913 76.9728C130.83 76.739 130.743 76.5119 130.638 76.2928C130.555 76.0604 130.47 75.8333 130.363 75.6128C130.281 75.3817 130.196 75.1559 130.091 74.9368C130.008 74.7017 129.921 74.4733 129.815 74.2515C129.731 74.019 129.645 73.7919 129.54 73.5715C129.456 73.3377 129.37 73.1106 129.265 72.8915C129.181 72.659 129.095 72.4319 128.99 72.2115C128.906 71.9777 128.82 71.7506 128.715 71.5315C128.632 71.299 128.545 71.0719 128.44 70.8515C127.528 68.2762 125.088 66.4062 122.188 66.4062C120.383 66.4062 118.75 67.1314 117.554 68.3001C117.523 68.0531 117.439 67.8167 117.279 67.6215C117.248 67.3731 117.166 67.1367 117.004 66.9415C116.973 66.6931 116.891 66.4554 116.729 66.2601C116.698 66.0118 116.616 65.7754 116.454 65.5801C116.423 65.3318 116.341 65.0954 116.179 64.9001C116.149 64.6518 116.066 64.4154 115.904 64.2201C115.874 63.9718 115.791 63.7354 115.629 63.5401C115.599 63.2918 115.516 63.0554 115.356 62.8601C115.324 62.6118 115.241 62.3754 115.081 62.1801C115.049 61.9318 114.966 61.6954 114.806 61.5001C114.774 61.2518 114.693 61.0154 114.531 60.8201C114.499 60.5718 114.418 60.3354 114.256 60.1401C114.224 59.8918 114.143 59.654 113.981 59.4588C113.949 59.2104 113.868 58.9754 113.707 58.7801C113.677 58.5318 113.595 58.294 113.433 58.0988C113.401 57.8504 113.32 57.614 113.158 57.4188C113.126 57.1704 113.045 56.934 112.883 56.7388C112.851 56.4904 112.77 56.254 112.608 56.0588C112.576 55.8104 112.495 55.574 112.333 55.3788C112.301 55.1291 112.22 54.894 112.058 54.6988C112.026 54.4504 111.945 54.214 111.783 54.0188C111.751 53.7704 111.669 53.534 111.508 53.3388C111.478 53.0904 111.395 52.8527 111.233 52.6575C111.201 52.4091 111.12 52.1727 110.958 51.9775C110.926 51.7291 110.845 51.4927 110.683 51.2975C110.651 51.0491 110.57 50.8127 110.408 50.6175C110.378 50.3691 110.295 50.1327 110.133 49.9375C110.103 49.6891 110.021 49.4527 109.859 49.2575C109.828 49.0091 109.746 48.774 109.585 48.5788C109.556 48.3304 109.472 48.0927 109.31 47.8975C109.279 47.6491 109.197 47.4127 109.035 47.2175C109.005 46.9691 108.922 46.7327 108.76 46.5375C108.73 46.2891 108.647 46.0527 108.485 45.8575C108.455 45.6091 108.372 45.3714 108.21 45.1761C108.18 44.9278 108.097 44.6914 107.935 44.4961C107.905 44.2478 107.823 44.0114 107.66 43.8161C107.63 43.5678 107.548 43.3314 107.386 43.1361C107.355 42.8878 107.273 42.6514 107.111 42.4561C107.08 42.2078 106.998 41.9714 106.837 41.7761C106.805 41.5278 106.724 41.2914 106.562 41.0961C106.53 40.8478 106.449 40.6114 106.287 40.4161C106.255 40.1678 106.174 39.9314 106.012 39.7361C105.98 39.4878 105.899 39.2514 105.737 39.0561C105.707 38.8078 105.624 38.5714 105.464 38.3761C105.433 38.1278 105.351 37.8901 105.189 37.6948C105.157 37.4465 105.076 37.2101 104.914 37.0148C104.882 36.7665 104.801 36.5301 104.639 36.3348C104.607 36.0865 104.526 35.8501 104.364 35.6548C104.332 35.4065 104.251 35.1701 104.089 34.9748C104.057 34.7265 103.976 34.4901 103.814 34.2948C103.762 33.8871 103.545 33.5046 103.157 33.2934C102.514 32.9415 101.705 33.1779 101.355 33.822L97.8018 40.3245C93.9609 38.327 89.6179 37.1875 85 37.1875C80.3821 37.1875 76.0391 38.327 72.2035 40.3139L68.6508 33.8114C68.2975 33.1686 67.4913 32.9282 66.8485 33.2828C66.2057 33.6347 65.968 34.4409 66.3199 35.0851L66.4673 35.3573C66.4939 35.4954 66.5231 35.6349 66.5948 35.7664L66.7423 36.0386C66.7688 36.1768 66.798 36.3162 66.8698 36.4477L67.0172 36.72C67.0424 36.8581 67.073 36.9975 67.1447 37.129L67.2921 37.4013C67.3173 37.5394 67.3479 37.6789 67.4196 37.8104L67.567 38.0826C67.5923 38.2208 67.6228 38.3602 67.6945 38.4917L67.842 38.764C67.8672 38.9021 67.8977 39.0415 67.9695 39.173L68.1142 39.4386C68.1395 39.5794 68.17 39.7202 68.243 39.853L68.3905 40.124C68.4157 40.2621 68.4463 40.4029 68.518 40.5343L68.6654 40.8066C68.6906 40.9447 68.7212 41.0842 68.7929 41.2157L68.9403 41.4879C68.9656 41.6261 68.9961 41.7655 69.0678 41.897L69.2033 42.1414C61.9079 47.163 57.1094 55.5488 57.1094 65.0781H57.4069C57.4016 65.3052 57.3843 65.5297 57.3843 65.7581H57.6818C57.6765 65.9852 57.6592 66.2097 57.6592 66.4381H57.9567C57.9514 66.6652 57.9341 66.8897 57.9341 67.1181H58.2316C58.2263 67.324 58.2117 67.5272 58.2117 67.733H57.1094V78.4032C57.1001 78.3846 57.0895 78.3686 57.0815 78.3501C56.9991 78.1163 56.9115 77.8892 56.8079 77.6701C56.7242 77.4376 56.6366 77.2105 56.533 76.9901C56.4493 76.7563 56.363 76.5292 56.258 76.3101C56.1744 76.0776 56.0894 75.8505 55.9831 75.6301C55.9008 75.399 55.8158 75.1732 55.7109 74.954C55.6272 74.719 55.5409 74.4905 55.4346 74.2687C55.3509 74.0363 55.2646 73.8092 55.1597 73.5887C55.076 73.355 54.9897 73.1279 54.8848 72.9087C54.8011 72.6763 54.7148 72.4492 54.6098 72.2287C54.5262 71.995 54.4398 71.7679 54.3349 71.5487C54.2513 71.3163 54.1649 71.0892 54.06 70.8687C53.1529 68.2762 50.7131 66.4062 47.8125 66.4062C44.1442 66.4062 41.1719 69.3799 41.1719 73.0468V99.6093C41.1719 100.636 41.4242 101.6 41.8426 102.467C41.9262 102.701 42.0126 102.928 42.1175 103.149C42.2012 103.383 42.2875 103.61 42.3924 103.829C42.4761 104.061 42.5624 104.29 42.6673 104.51C42.751 104.744 42.8373 104.971 42.9423 105.19C43.0246 105.423 43.1123 105.65 43.2172 105.87C43.2982 106.101 43.3845 106.327 43.4895 106.545C43.5718 106.779 43.6595 107.01 43.7657 107.23C43.848 107.465 43.9344 107.692 44.0406 107.913C44.123 108.147 44.2106 108.375 44.3155 108.593C44.3979 108.827 44.4855 109.052 44.5905 109.273C44.6728 109.508 44.7605 109.735 44.8654 109.954C44.9477 110.187 45.0354 110.414 45.1403 110.634C45.2227 110.869 45.3103 111.095 45.4152 111.315C45.4976 111.547 45.5852 111.775 45.6902 111.995C45.7725 112.229 45.8602 112.456 45.9651 112.675C46.0474 112.908 46.1351 113.135 46.24 113.355C46.3223 113.589 46.4087 113.815 46.5149 114.035C46.5973 114.271 46.6836 114.498 46.7898 114.718C46.8722 114.951 46.9598 115.178 47.0648 115.398C47.1471 115.632 47.2348 115.86 47.3384 116.078C47.4207 116.309 47.5057 116.536 47.6106 116.753C47.6943 116.989 47.7806 117.218 47.8869 117.439C47.9705 117.672 48.0569 117.9 48.1618 118.121C48.2455 118.355 48.3318 118.58 48.4367 118.801C48.5204 119.033 48.6067 119.26 48.7116 119.481C48.7953 119.713 48.8816 119.94 48.9866 120.161C49.0702 120.395 49.1566 120.623 49.2615 120.843C49.3452 121.075 49.4315 121.303 49.5364 121.523C49.6201 121.757 49.7064 121.984 49.8113 122.205C49.895 122.437 49.9813 122.666 50.0863 122.886C50.1699 123.12 50.2562 123.347 50.3612 123.566C50.4448 123.798 50.5312 124.026 50.6361 124.246C50.7198 124.48 50.8061 124.708 50.911 124.926C50.9947 125.16 51.081 125.386 51.1859 125.606C51.2696 125.841 51.3559 126.068 51.4609 126.287C51.5419 126.518 51.6282 126.743 51.7331 126.962C51.8155 127.197 51.9031 127.428 52.0094 127.649C52.0917 127.882 52.178 128.11 52.2843 128.33C52.3666 128.564 52.4543 128.791 52.5592 129.011C52.6416 129.245 52.7292 129.474 52.8341 129.691C52.9165 129.925 53.0041 130.151 53.1091 130.371C53.1914 130.606 53.2791 130.834 53.384 131.053C53.4663 131.285 53.554 131.512 53.6589 131.733C53.7413 131.968 53.8289 132.194 53.9338 132.414C54.0162 132.645 54.1025 132.874 54.2088 133.094C54.2911 133.326 54.3774 133.554 54.4837 133.775C54.566 134.008 54.6537 134.236 54.7586 134.457C54.8409 134.688 54.9273 134.916 55.0335 135.137C55.1159 135.37 55.2035 135.598 55.3071 135.818C55.3908 136.05 55.4784 136.278 55.582 136.498C55.6644 136.73 55.7507 136.956 55.8543 137.174C55.938 137.408 56.0243 137.638 56.1305 137.859C56.2142 138.093 56.3005 138.32 56.4055 138.539C56.4891 138.773 56.5755 138.999 56.6804 139.219C56.7641 139.453 56.8504 139.679 56.9553 139.899C57.039 140.134 57.1253 140.362 57.2302 140.582C57.3139 140.814 57.4002 141.042 57.5052 141.262C57.5888 141.496 57.6752 141.722 57.7801 141.942C57.8638 142.177 57.9501 142.404 58.055 142.625C58.1387 142.858 58.225 143.086 58.3299 143.305C58.4136 143.538 58.4999 143.764 58.6048 143.985C58.6885 144.218 58.7748 144.447 58.8798 144.666C58.9634 144.898 59.0498 145.126 59.1547 145.346C59.2384 145.578 59.3247 145.807 59.4296 146.027C59.512 146.261 59.5996 146.487 59.7045 146.707C59.7869 146.941 59.8745 147.168 59.9795 147.389C60.0605 147.62 60.1468 147.844 60.2517 148.063C60.3341 148.298 60.4217 148.527 60.528 148.75C60.6103 148.985 60.698 149.212 60.8029 149.431C60.8852 149.664 60.9729 149.891 61.0778 150.111C61.1602 150.346 61.2478 150.572 61.3527 150.793C61.4351 151.024 61.5227 151.252 61.6277 151.473C61.71 151.705 61.7963 151.932 61.9026 152.153C61.9849 152.386 62.0713 152.615 62.1775 152.835C62.2598 153.066 62.3475 153.295 62.4524 153.515C62.5348 153.748 62.6224 153.975 62.7273 154.195C62.8097 154.428 62.896 154.655 63.0023 154.875C63.0846 155.109 63.1723 155.337 63.2772 155.558C63.3595 155.789 63.4472 156.017 63.5521 156.238C63.6345 156.472 63.7221 156.699 63.8257 156.918C63.9094 157.15 63.997 157.377 64.1006 157.598C64.183 157.829 64.268 158.055 64.3729 158.273C64.4566 158.509 64.5429 158.737 64.6491 158.959C64.7328 159.192 64.8191 159.419 64.9241 159.641C65.0077 159.874 65.0941 160.1 65.199 160.321C65.2827 160.554 65.369 160.781 65.4739 161.002C65.5576 161.234 65.6439 161.461 65.7488 161.682C65.8325 161.917 65.9188 162.143 66.0238 162.363C66.1074 162.597 66.1938 162.825 66.2987 163.043C66.3823 163.277 66.4687 163.504 66.5736 163.725C66.6573 163.958 66.7436 164.185 66.8485 164.405C66.9322 164.637 67.0185 164.865 67.1234 165.086C67.2071 165.318 67.2934 165.545 67.3984 165.767C67.482 166 67.5684 166.227 67.6733 166.447C67.757 166.68 67.8433 166.908 67.9482 167.129C68.0305 167.36 68.1182 167.588 68.2231 167.809C68.2948 168.013 68.3745 168.212 68.4662 168.408C73.8212 169.436 79.3435 170 85 170C113.495 170 138.697 155.964 154.12 134.445Z" fill="black"/>
<path d="M57.1094 107.578C57.1094 111.961 60.6953 115.547 65.0781 115.547H67.7344V128.828C67.7344 132.495 70.7067 135.469 74.375 135.469C78.0433 135.469 81.0156 132.495 81.0156 128.828V115.547H88.9844V128.828C88.9844 132.495 91.9567 135.469 95.625 135.469C99.2933 135.469 102.266 132.495 102.266 128.828V115.547H104.922C109.305 115.547 112.891 111.961 112.891 107.578V67.7344H57.1094V107.578Z" fill="white"/>
<path d="M122.188 66.4062C118.519 66.4062 115.547 69.3799 115.547 73.0469V99.6094C115.547 103.276 118.519 106.25 122.188 106.25C125.856 106.25 128.828 103.276 128.828 99.6094V73.0469C128.828 69.3799 125.856 66.4062 122.188 66.4062Z" fill="white"/>
<path d="M47.8125 66.4062C44.1442 66.4062 41.1719 69.3799 41.1719 73.0469V99.6094C41.1719 103.276 44.1442 106.25 47.8125 106.25C51.4808 106.25 54.4531 103.276 54.4531 99.6094V73.0469C54.4531 69.3799 51.4808 66.4062 47.8125 66.4062Z" fill="white"/>
<path d="M100.095 41.6473L103.68 35.0851C104.032 34.4409 103.794 33.6347 103.151 33.2828C102.509 32.9308 101.7 33.1672 101.349 33.8114L97.7965 40.3139C93.9609 38.327 89.6179 37.1875 85 37.1875C80.3821 37.1875 76.0391 38.327 72.2035 40.3139L68.6508 33.8114C68.2975 33.1686 67.4913 32.9282 66.8485 33.2828C66.2057 33.6347 65.968 34.4409 66.3199 35.0851L69.9045 41.6473C62.2134 46.6132 57.1094 55.242 57.1094 65.0781H112.891C112.891 55.242 107.787 46.6132 100.095 41.6473ZM73.0469 55.7812C71.5806 55.7812 70.3906 54.5912 70.3906 53.125C70.3906 51.6587 71.5806 50.4687 73.0469 50.4687C74.5131 50.4687 75.7031 51.6587 75.7031 53.125C75.7031 54.5912 74.5131 55.7812 73.0469 55.7812ZM96.9531 55.7812C95.4869 55.7812 94.2969 54.5912 94.2969 53.125C94.2969 51.6587 95.4869 50.4687 96.9531 50.4687C98.4194 50.4687 99.6094 51.6587 99.6094 53.125C99.6094 54.5912 98.4194 55.7812 96.9531 55.7812Z" fill="white"/>
<path d="M85 115.547H88.9844V128.828C88.9844 132.495 91.9567 135.469 95.625 135.469C99.2933 135.469 102.266 132.495 102.266 128.828V115.547H104.922C109.305 115.547 112.891 111.961 112.891 107.578V67.7344H85V115.547Z" fill="white"/>
<path d="M100.095 41.6473L103.68 35.0851C104.032 34.4409 103.794 33.6347 103.151 33.2828C102.509 32.9308 101.7 33.1672 101.349 33.8114L97.7965 40.3139C93.9609 38.327 89.6179 37.1875 85 37.1875V65.0781H112.891C112.891 55.242 107.787 46.6132 100.095 41.6473ZM96.9531 55.7812C95.4869 55.7812 94.2969 54.5912 94.2969 53.125C94.2969 51.6587 95.4869 50.4687 96.9531 50.4687C98.4194 50.4687 99.6094 51.6587 99.6094 53.125C99.6094 54.5912 98.4194 55.7812 96.9531 55.7812Z" fill="white"/>
<path d="M122.188 66.4062C118.519 66.4062 115.547 69.3799 115.547 73.0469V99.6094C115.547 103.276 118.519 106.25 122.188 106.25C125.856 106.25 128.828 103.276 128.828 99.6094V73.0469C128.828 69.3799 125.856 66.4062 122.188 66.4062Z" fill="white"/>
</svg>
