<svg width="170" height="170" viewBox="0 0 170 170" fill="none" xmlns="http://www.w3.org/2000/svg">
<rect width="170" height="170" rx="85" fill="black"/>
<path d="M67.9032 76.8095V56.6949H85.6018C87.2878 56.6949 88.9129 56.8353 90.478 57.1166C92.0431 57.3973 93.428 57.8989 94.6321 58.6219C95.8357 59.3448 96.799 60.3485 97.5217 61.633C98.2438 62.918 98.6054 64.5642 98.6054 66.571C98.6054 70.1847 97.5217 72.7947 95.3542 74.4004C93.1873 76.0066 90.4181 76.8095 87.0466 76.8095H67.9032V76.8095ZM49 42V128H90.6588C94.5118 128 98.2644 127.518 101.917 126.555C105.569 125.591 108.819 124.106 111.669 122.098C114.518 120.091 116.786 117.501 118.471 114.329C120.158 111.157 121 107.403 121 103.067C121 97.6869 119.696 93.0901 117.087 89.2761C114.478 85.4616 110.525 82.7917 105.227 81.2659C109.08 79.4194 111.99 77.0503 113.957 74.1596C115.923 71.2689 116.906 67.6557 116.906 63.3191C116.906 59.3043 116.244 55.932 114.92 53.2016C113.595 50.4718 111.729 48.2835 109.321 46.6373C106.913 44.9911 104.024 43.8066 100.652 43.0842C97.281 42.3612 93.5484 42 89.4547 42H49V42ZM67.9032 113.305V89.6973H88.4914C92.585 89.6973 95.8761 90.6405 98.3647 92.528C100.853 94.4151 102.097 97.5665 102.097 101.983C102.097 104.232 101.716 106.078 100.953 107.524C100.191 108.969 99.1673 110.114 97.8828 110.956C96.5988 111.8 95.1135 112.402 93.428 112.764C91.742 113.124 89.9766 113.305 88.1303 113.305H67.9032V113.305Z" fill="white"/>
</svg>
