<svg width="170" height="170" viewBox="0 0 170 170" fill="none" xmlns="http://www.w3.org/2000/svg">
<rect width="170" height="170" rx="85" fill="black"/>
<path d="M140.736 53.0257L84.6672 20.6542L28.5981 53.0257V117.769L84.6672 150.14L140.736 117.769V53.0257Z" fill="white"/>
<path d="M112.356 57.7084C106.801 52.1535 99.7239 48.3706 92.019 46.838C84.3142 45.3054 76.3279 46.092 69.0701 49.0983C61.8122 52.1046 55.6089 57.1956 51.2444 63.7274C46.88 70.2593 44.5505 77.9387 44.5505 85.7945C44.5505 93.6503 46.88 101.33 51.2444 107.862C55.6089 114.393 61.8123 119.484 69.0701 122.491C76.3279 125.497 84.3142 126.283 92.019 124.751C99.7239 123.218 106.801 119.435 112.356 113.88L96.26 97.7844C93.8886 100.156 90.8673 101.771 87.5781 102.425C84.2889 103.079 80.8796 102.743 77.7812 101.46C74.6829 100.177 72.0347 98.0033 70.1715 95.2149C68.3083 92.4264 67.3138 89.1481 67.3138 85.7945C67.3138 82.4408 68.3083 79.1625 70.1715 76.3741C72.0347 73.5856 74.6829 71.4123 77.7812 70.1289C80.8796 68.8455 84.2889 68.5097 87.5781 69.164C90.8673 69.8182 93.8886 71.4332 96.26 73.8046L112.356 57.7084Z" fill="black"/>
</svg>
