<svg width="170" height="170" viewBox="0 0 170 170" fill="none" xmlns="http://www.w3.org/2000/svg">
<rect width="170" height="170" rx="85" fill="black"/>
<g clip-path="url(#clip0_5_92)">
<path d="M68.4174 109.485C68.4174 109.485 63.9421 112.088 71.6008 112.966C74.4039 113.38 77.6409 113.619 80.9266 113.619C86.2111 113.619 91.3494 113.009 96.278 111.849L95.8246 111.937C97.6479 113.048 99.7685 114.106 101.977 114.979L102.265 115.076C79.3618 124.895 50.4286 114.506 68.4223 109.48L68.4174 109.485Z" fill="white"/>
<path d="M65.6191 96.6733C65.6191 96.6733 60.6028 100.388 68.2614 101.178C71.6105 101.597 75.4861 101.841 79.4203 101.841C86.5426 101.841 93.4797 101.051 100.149 99.5593L99.5199 99.6763C100.86 100.934 102.464 101.933 104.239 102.582L104.336 102.611C76.6464 110.708 45.7974 103.25 65.6191 96.6733V96.6733Z" fill="white"/>
<path d="M89.2093 74.9406C94.8545 81.439 87.7273 87.2841 87.7273 87.2841C87.7273 87.2841 102.055 79.8741 95.4785 70.6214C89.3311 61.9829 84.617 57.688 110.133 42.8924C110.133 42.8924 70.0798 52.8959 89.2093 74.9406V74.9406Z" fill="white"/>
<path d="M119.502 118.962C119.502 118.962 122.808 121.692 115.861 123.798C102.64 127.805 60.8367 129.014 49.2196 123.959C45.0466 122.14 52.8759 119.62 55.3329 119.093C56.4639 118.806 57.7655 118.64 59.1061 118.64H59.384H59.3694C54.7284 115.369 29.3638 125.065 46.4994 127.834C93.197 135.41 131.627 124.422 119.517 118.962H119.502Z" fill="white"/>
<path d="M70.5672 83.3988C70.5672 83.3988 49.3025 88.4493 63.0354 90.2823C66.7355 90.5894 71.0499 90.76 75.3984 90.76C80.951 90.76 86.4354 90.4773 91.8369 89.9264L91.1592 89.9849C99.9586 89.2439 108.797 87.6449 108.797 87.6449C106.725 88.5516 104.97 89.5071 103.308 90.5943L103.449 90.5065C81.8529 96.1859 40.1424 93.5436 52.1495 87.7326C57.4437 84.988 63.713 83.3793 70.3527 83.3793H70.577H70.5672V83.3988Z" fill="white"/>
<path d="M108.709 104.727C130.656 93.3194 120.512 82.3604 113.423 83.8326C112.453 84.013 111.61 84.247 110.796 84.5444L110.908 84.5102C111.371 83.857 112.01 83.3549 112.755 83.0721L112.785 83.0624C126.795 78.1386 137.579 97.5947 108.261 105.292C108.441 105.131 108.587 104.941 108.695 104.732L108.699 104.722L108.709 104.727Z" fill="white"/>
<path d="M95.4785 19C95.4785 19 107.637 31.1582 83.9442 49.8587C64.9512 64.8591 79.6104 73.4099 83.9442 83.1843C72.8585 73.1808 64.7221 64.3765 70.1772 56.1767C78.1917 44.1452 100.388 38.3147 95.4785 18.9951V19Z" fill="white"/>
<path d="M72.7269 135.634C93.7869 136.985 126.157 134.884 126.937 124.919C126.937 124.919 125.465 128.697 109.523 131.7C100.719 133.29 90.584 134.196 80.2344 134.196C71.7568 134.196 63.4254 133.587 55.2695 132.412L56.2006 132.524C56.2006 132.524 58.8965 134.757 72.7415 135.644L72.7269 135.634Z" fill="white"/>
</g>
<defs>
<clipPath id="clip0_5_92">
<rect width="117" height="117" fill="white" transform="translate(26 19)"/>
</clipPath>
</defs>
</svg>
