<svg width="170" height="170" viewBox="0 0 170 170" fill="none" xmlns="http://www.w3.org/2000/svg">
<rect width="170" height="170" rx="85" fill="black"/>
<path d="M140.937 53.016C140.979 53.1693 141 53.3274 141 53.4862V78.1707C141 78.4875 140.917 78.7987 140.759 79.0728C140.601 79.347 140.374 79.5744 140.101 79.732L119.515 91.6602V115.303C119.515 115.946 119.175 116.54 118.621 116.864L75.6483 141.76C75.5499 141.817 75.4426 141.853 75.3353 141.891C75.2951 141.904 75.2571 141.929 75.2146 141.94C74.9142 142.02 74.5985 142.02 74.2981 141.94C74.2489 141.927 74.2042 141.9 74.1572 141.882C74.0589 141.846 73.956 141.814 73.8621 141.76L30.8987 116.864C30.6257 116.707 30.3989 116.479 30.2412 116.205C30.0834 115.931 30.0002 115.62 30 115.303V41.2497C30 41.0877 30.0224 40.9303 30.0626 40.7773C30.076 40.7255 30.1073 40.6783 30.1252 40.6265C30.1587 40.5321 30.19 40.4353 30.2392 40.3476C30.2727 40.2891 30.3219 40.2418 30.3621 40.1878C30.4136 40.1158 30.4605 40.0416 30.5209 39.9786C30.5723 39.9269 30.6393 39.8886 30.6975 39.8436C30.7623 39.7896 30.8204 39.7311 30.8942 39.6884H30.8964L52.3793 27.2404C52.6513 27.0829 52.9596 27 53.2735 27C53.5873 27 53.8956 27.0829 54.1677 27.2404L75.6505 39.6884H75.655C75.7265 39.7334 75.7869 39.7896 75.8517 39.8414C75.9098 39.8864 75.9747 39.9269 76.0261 39.9764C76.0887 40.0416 76.1334 40.1158 76.187 40.1878C76.225 40.2418 76.2765 40.2891 76.3078 40.3476C76.3592 40.4376 76.3882 40.5321 76.424 40.6265C76.4419 40.6783 76.4732 40.7255 76.4866 40.7795C76.5277 40.9328 76.5488 41.0909 76.5492 41.2497V87.5027L94.4508 77.129V53.484C94.4508 53.3265 94.4732 53.1667 94.5134 53.016C94.5291 52.962 94.5581 52.9148 94.576 52.863C94.6118 52.7685 94.6431 52.6718 94.6923 52.5841C94.7258 52.5256 94.775 52.4783 94.813 52.4243C94.8666 52.3523 94.9113 52.2781 94.9739 52.2151C95.0253 52.1634 95.0902 52.1251 95.1483 52.0801C95.2154 52.0261 95.2735 51.9676 95.345 51.9249H95.3472L116.832 39.4769C117.104 39.3192 117.413 39.2361 117.727 39.2361C118.04 39.2361 118.349 39.3192 118.621 39.4769L140.104 51.9249C140.18 51.9699 140.238 52.0261 140.305 52.0779C140.361 52.1229 140.425 52.1633 140.477 52.2128C140.539 52.2781 140.584 52.3523 140.638 52.4243C140.678 52.4783 140.727 52.5256 140.759 52.5841C140.81 52.6718 140.839 52.7685 140.875 52.863C140.895 52.9148 140.924 52.962 140.937 53.016V53.016ZM137.419 77.129V56.6021L129.901 60.9577L119.515 66.9758V87.5027L137.421 77.129H137.419ZM115.936 114.261V93.721L105.72 99.5929L76.5469 116.349V137.083L115.936 114.261ZM33.5812 44.3657V114.261L72.9657 137.081V116.351L52.3905 104.632L52.3838 104.628L52.3748 104.623C52.3055 104.583 52.2474 104.524 52.1826 104.475C52.1267 104.43 52.0618 104.394 52.0127 104.344L52.0082 104.338C51.9501 104.281 51.9098 104.212 51.8607 104.149C51.8159 104.088 51.7623 104.036 51.7265 103.973L51.7243 103.966C51.6841 103.899 51.6595 103.818 51.6304 103.741C51.6013 103.674 51.5633 103.611 51.5455 103.539V103.537C51.5231 103.451 51.5186 103.361 51.5097 103.274C51.5007 103.206 51.4829 103.139 51.4829 103.071V54.7393L41.0991 48.719L33.5812 44.3679V44.3657ZM53.2757 30.8806L35.3763 41.2497L53.2712 51.6189L71.1684 41.2475L53.2712 30.8806H53.2757ZM62.5842 95.5928L72.968 89.577V44.3657L65.4501 48.7212L55.0641 54.7393V99.9506L62.5842 95.5928ZM117.727 43.117L99.8294 53.4862L117.727 63.8554L135.621 53.484L117.727 43.117ZM115.936 66.9758L105.55 60.9577L98.032 56.6021V77.129L108.416 83.1449L115.936 87.5027V66.9758ZM74.7541 113.233L101.005 98.1508L114.127 90.6141L96.2437 80.2517L75.6528 92.1822L56.886 103.055L74.7541 113.233Z" fill="white"/>
</svg>
