<svg width="170" height="170" viewBox="0 0 170 170" fill="none" xmlns="http://www.w3.org/2000/svg">
<path d="M85 170C131.944 170 170 131.944 170 85C170 38.0558 131.944 0 85 0C38.0558 0 0 38.0558 0 85C0 131.944 38.0558 170 85 170Z" fill="black"/>
<path d="M107.721 74.6141C102.352 50.9187 89.6633 43.1275 88.297 40.1509C86.8029 38.0508 85.2888 34.3154 85.2888 34.3154C85.2639 34.2523 85.2241 34.1411 85.1776 34.0332C85.0232 36.1333 84.9435 36.9435 82.958 39.0618C79.8834 41.4657 64.1086 54.7022 62.8253 81.6233C61.6283 106.731 80.9625 121.693 83.5772 123.6L83.8744 123.811V123.793C83.891 123.919 84.7045 129.769 85.2756 135.968H87.3242C87.8049 131.587 88.5253 127.234 89.4824 122.931L89.6484 122.823C90.818 121.985 91.9331 121.073 92.987 120.092L93.1065 119.984C98.6647 114.85 108.657 102.973 108.559 84.0371C108.539 80.8784 108.258 77.7268 107.721 74.6141ZM85.0581 109.424C85.0581 109.424 85.0581 74.209 86.2202 74.2156C87.1266 74.2156 88.3004 119.639 88.3004 119.639C86.6867 119.445 85.0581 112.163 85.0581 109.424Z" fill="white"/>
</svg>
