<svg width="170" height="170" viewBox="0 0 170 170" fill="none" xmlns="http://www.w3.org/2000/svg">
<rect width="170" height="170" rx="85" fill="black"/>
<path d="M98.9249 81.1619L75.6904 88.7488L55.4767 97.6702L49.8216 99.1631C48.3814 100.533 46.8713 101.921 45.238 103.326C43.4467 104.871 41.7783 106.276 40.4961 107.294C39.0737 108.418 36.9662 110.526 35.895 111.86C34.2968 113.862 33.0324 115.987 32.4879 117.621C31.5219 120.571 31.9963 123.557 33.8578 126.314C36.2462 129.826 41.0056 133.409 46.555 135.85C49.3827 137.097 54.1419 138.695 57.7244 139.591C63.6778 141.101 75.1986 142.734 81.5383 142.98C82.8202 143.033 84.5414 143.033 84.6115 142.98C84.7521 142.892 85.7356 141.013 86.8773 138.678C90.7761 130.722 93.5859 123.258 95.1137 116.883C96.0269 113.02 96.7469 107.874 97.2209 101.78C97.344 100.077 97.3965 94.3691 97.2912 92.4371C97.133 89.276 96.852 86.7121 96.4133 84.2007C96.343 83.8318 96.3252 83.4981 96.3605 83.4806C96.4305 83.428 96.6413 83.3577 99.5039 82.5321L98.9246 81.1625V81.1621H98.9249V81.1619ZM93.6212 84.2706C93.832 84.2706 94.3938 89.662 94.5342 93.0693C94.5695 93.7892 94.5517 94.2634 94.5167 94.2634C94.3763 94.2634 91.5487 92.5952 89.5294 91.3308C87.7731 90.2243 84.4364 88.0114 83.9096 87.5899C83.7337 87.4671 83.7512 87.4496 85.1915 86.9577C87.6323 86.1321 93.4281 84.2706 93.6212 84.2706V84.2706ZM81.7844 88.1695C81.9426 88.1695 82.3462 88.3975 83.3122 88.9948C86.9299 91.2602 91.8474 94 93.9548 94.9134C94.6045 95.1943 94.6745 95.0888 93.1821 96.1076C89.9858 98.2852 85.999 100.428 81.1167 102.588C80.2563 102.974 79.5364 103.273 79.5189 103.273C79.4839 103.273 79.5889 102.834 79.7293 102.307C80.906 97.9336 81.5735 93.5081 81.6088 89.9606C81.6263 88.2043 81.6263 88.2043 81.7844 88.1519C81.7491 88.1695 81.7666 88.1695 81.7844 88.1695V88.1695ZM79.3434 89.1001C79.4484 89.2053 79.3784 93.1394 79.2378 94.2106C78.9217 96.7747 78.43 99.1631 77.6224 101.85C77.4292 102.5 77.2533 103.044 77.2185 103.079C77.1479 103.167 74.7419 100.814 73.9517 99.9007C72.5817 98.32 71.5107 96.7394 70.7204 95.1941C70.3164 94.4037 69.6843 92.8585 69.7369 92.8057C70.0178 92.6125 79.2731 89.03 79.3434 89.1001ZM67.8577 93.6135C67.8752 93.6135 67.8926 93.6135 67.9105 93.631C67.9454 93.6661 68.0686 93.9472 68.174 94.2632C68.7358 95.7912 70 98.0391 71.0892 99.4792C72.2834 101.06 73.8466 102.746 75.1458 103.852C75.5675 104.203 75.9536 104.537 76.0062 104.59C76.1118 104.695 76.1469 104.677 73.2841 105.766C69.9653 107.031 66.3473 108.295 62.2026 109.63C61.2125 109.949 60.2233 110.271 59.2351 110.596C59.0767 110.649 59.1295 110.561 59.5861 109.841C61.6408 106.627 64.7667 100.322 66.523 95.8614C66.8216 95.0886 67.1201 94.316 67.1729 94.1404C67.2432 93.8943 67.3309 93.8066 67.5591 93.6836C67.682 93.6488 67.8051 93.6135 67.8577 93.6135V93.6135ZM64.3456 95.0711C64.3982 95.1064 63.5025 96.9854 62.6243 98.7065C60.9207 102.026 59.0592 105.292 56.5655 109.261C56.144 109.946 55.7402 110.578 55.6874 110.649C55.5997 110.772 55.5644 110.736 55.2835 110.192C54.6864 109.015 54.1945 107.505 53.9311 106.118C53.6676 104.748 53.7204 102.359 54.0191 100.884C54.2471 99.7955 54.2298 99.813 54.7566 99.5495C57.0045 98.408 64.2753 95.0009 64.3456 95.0711V95.0711ZM94.6398 96.3006V97.0382C94.6398 100.955 94.2183 106.328 93.6034 110.245C93.4981 110.93 93.41 111.492 93.3927 111.509C93.3927 111.509 92.8835 111.369 92.2864 111.193C89.6522 110.368 86.7895 109.156 84.2078 107.734C82.5041 106.803 80.028 105.275 80.0984 105.204C80.1157 105.187 80.8534 104.801 81.7138 104.344C85.1564 102.553 88.4577 100.621 91.3204 98.7066C92.3917 97.9865 94.0071 96.8276 94.3588 96.5114L94.6398 96.3006ZM51.086 101.499C51.1563 101.499 51.1387 101.639 51.0333 102.271C50.963 102.728 50.8753 103.571 50.8404 104.15C50.6996 106.715 51.1214 108.611 52.3858 111.21C52.737 111.931 53.0182 112.528 53.0004 112.545C52.8773 112.651 41.2516 116.058 37.5984 117.059C36.5097 117.357 35.5615 117.621 35.4909 117.638C35.3682 117.673 35.3505 117.656 35.4032 117.357C35.8071 114.776 37.7741 111.404 40.5136 108.558C42.3402 106.662 43.7979 105.555 46.2917 104.133C48.083 103.114 50.8402 101.587 51.0509 101.516C51.0511 101.499 51.0685 101.499 51.086 101.499V101.499ZM78.4828 106.398C78.5003 106.381 78.9217 106.609 79.4309 106.908C83.1893 109.086 88.4227 111.105 92.8832 112.141L93.2874 112.229L92.7252 112.545C90.3896 113.845 82.715 117.041 74.865 119.974C73.7233 120.395 72.5995 120.817 72.3884 120.905C72.1777 120.992 71.9845 121.045 71.9845 121.028C71.9845 121.01 72.3008 120.395 72.7044 119.64C74.8997 115.531 77.1127 110.526 78.2366 107.048C78.3774 106.715 78.465 106.416 78.4828 106.398V106.398ZM75.6904 107.312C75.7082 107.33 75.5676 107.698 75.3918 108.12C73.8641 111.825 71.8617 115.865 69.2978 120.396C68.6482 121.555 68.1036 122.486 68.0858 122.486C68.0685 122.486 67.5415 122.169 66.9093 121.783C63.186 119.5 59.8845 116.69 57.7245 113.968L57.4083 113.581L59.0063 113.142C64.7316 111.58 69.596 109.894 74.4258 107.821C75.1108 107.54 75.6729 107.312 75.6904 107.312V107.312ZM93.0416 113.371C93.0416 113.371 93.0592 113.388 93.0416 113.371C93.0591 113.775 92.1634 117.392 91.4258 120.009C90.8112 122.204 90.284 123.925 89.3184 126.963C88.8969 128.298 88.5284 129.405 88.5105 129.405C88.4931 129.405 88.3877 129.387 88.2823 129.352C83.0665 128.403 78.395 127.086 74.0045 125.33C72.775 124.838 71.0189 124.048 70.9135 123.96C70.8785 123.925 71.9323 123.434 73.267 122.854C81.2576 119.359 89.5468 115.39 92.3917 113.687C92.7253 113.476 92.9888 113.371 93.0416 113.371V113.371ZM52.9829 114.741C53.018 114.776 50.7876 117.99 47.6614 122.362C46.5727 123.89 45.3083 125.682 44.8342 126.349C44.3599 127.016 43.64 128.07 43.236 128.702L42.4981 129.844L41.7078 129.177C40.7769 128.404 39.1614 126.753 38.4414 125.84C36.931 123.961 35.9126 121.976 35.5086 120.167C35.3154 119.324 35.3154 118.903 35.4908 118.85C35.7542 118.78 40.4433 117.674 44.834 116.655C47.2751 116.093 50.1024 115.426 51.121 115.18C52.1397 114.934 52.9654 114.741 52.9829 114.741V114.741ZM55.2307 115.601L55.7925 116.233C58.3217 119.061 60.9033 121.151 64.0293 122.977C64.5914 123.293 65.0127 123.574 64.9774 123.592C64.8548 123.68 54.1242 127.49 49.1542 129.212C46.362 130.195 44.0613 130.985 44.0439 130.985C44.0264 130.985 43.8683 130.88 43.6924 130.757L43.3765 130.529L43.8857 129.791C45.5364 127.403 47.609 124.786 52.1224 119.342L55.2307 115.601ZM69.2453 125.629C69.2626 125.611 70.0353 125.892 70.9836 126.244C73.267 127.104 75.0755 127.649 77.4993 128.263C80.4849 129.019 84.805 129.756 87.3517 129.967C87.738 130.002 87.9488 130.037 87.8785 130.09C87.7553 130.16 85.174 131.021 83.2772 131.618C80.2563 132.566 71.0365 135.288 63.52 137.448C62.1326 137.852 60.9383 138.186 60.8681 138.203C60.6927 138.239 60.1129 138.08 60.1129 138.01C60.1129 137.975 60.5344 137.431 61.0438 136.834C63.5725 133.813 66.0841 130.441 68.174 127.245C68.7534 126.366 69.2453 125.646 69.2453 125.629ZM66.1541 125.717C66.1716 125.734 64.9249 127.736 62.7474 131.178C61.8164 132.636 60.7802 134.287 60.4114 134.866C60.0601 135.428 59.5333 136.307 59.2349 136.798L58.7255 137.694L58.4621 137.624C57.8297 137.448 53.3867 135.885 52.2099 135.411C50.7522 134.831 49.2419 134.129 48.1179 133.532C46.7131 132.777 44.957 131.653 45.0974 131.618C45.1324 131.6 47.5385 130.95 50.4361 130.16C58.1283 128.07 62.3957 126.858 65.1883 125.98C65.6977 125.822 66.1367 125.699 66.1541 125.717ZM88.0188 130.845H88.0363C88.1066 131.02 85.2618 138.923 84.2252 141.417C83.9972 141.979 83.9096 142.12 83.7865 142.102C83.4879 142.085 79.361 141.505 76.8493 141.136C72.4766 140.469 65.1356 139.187 63.2917 138.765L62.8703 138.678L65.4867 138.08C71.1067 136.816 73.8112 136.131 76.5507 135.288C80.0105 134.234 83.4353 132.917 86.8948 131.301C87.4392 131.055 87.8959 130.862 88.0188 130.845Z" fill="white"/>
<path d="M74.9705 27.0009C74.5841 26.9485 68.3494 29.1964 64.3279 30.8295C58.9011 33.0425 54.6865 35.1501 52.0872 36.9761C51.1215 37.6613 49.9094 38.8729 49.7165 39.347C49.6463 39.5227 49.611 39.7334 49.611 39.9441L51.9644 42.1745L57.5666 43.9658L70.8962 46.3543L86.1398 48.9711L86.2979 47.6539C86.2454 47.6539 86.2101 47.6365 86.1578 47.6365L84.1552 47.3202L83.7516 46.6003C81.6792 42.9473 79.3962 38.4163 78.0615 35.3605C77.0255 32.9896 76.0419 30.2502 75.4974 28.2831C75.1988 27.0889 75.1638 27.0187 74.9709 27.0012V27.0008H74.9705V27.0009ZM74.6892 27.8968H74.7072C74.7245 27.9142 74.7948 28.4062 74.8651 28.9854C75.1634 31.4445 75.7083 33.815 76.5687 36.3791C77.2183 38.311 77.2183 38.2057 76.4633 37.9772C74.672 37.4857 66.6462 36.0982 60.8332 35.2904C59.9024 35.1674 59.1121 35.0445 59.1121 35.0271C59.0419 34.9568 63.3093 32.7263 65.1884 31.8484C67.5944 30.7417 74.1977 27.9845 74.6892 27.8968V27.8968ZM57.7595 35.7645L58.4448 35.9926C62.1676 37.2572 71.5279 39.0486 76.6914 39.47C77.2708 39.5228 77.7628 39.5756 77.78 39.5756C77.7975 39.5931 77.3061 39.8565 76.6737 40.1549C74.1802 41.4018 71.4404 42.9298 69.5436 44.1065C68.9818 44.4576 68.4723 44.7387 68.4022 44.7387C68.3319 44.7387 67.9633 44.6684 67.5769 44.6157L66.8745 44.5102L65.1185 42.789C62.0275 39.7861 59.6039 37.468 58.6731 36.5897L57.7595 35.7645V35.7645ZM57.0573 36.3088L59.5335 39.3998C60.8856 41.1033 62.2555 42.7716 62.5543 43.1403C62.8526 43.5093 63.0986 43.808 63.0811 43.8255C63.0108 43.8781 59.4987 43.1931 57.6369 42.7718C55.7226 42.3326 54.9324 42.1219 53.7557 41.7532L52.7898 41.437V41.191C52.8072 40.0143 54.3002 38.2582 56.829 36.467L57.0573 36.3088ZM78.0964 40.5237C78.1668 40.5237 78.2544 40.6817 78.4651 41.1559C79.0622 42.473 80.9241 46.0206 81.3803 46.7055C81.5212 46.934 81.7667 46.9515 79.2907 46.5475C73.3374 45.5814 71.4229 45.2656 71.4229 45.2305C71.4229 45.213 71.5985 45.09 71.8268 44.967C73.6709 43.9486 75.5324 42.6488 77.1833 41.2614C77.5873 40.9277 77.9561 40.6116 78.0261 40.5588C78.0436 40.5237 78.0789 40.5062 78.0964 40.5237Z" fill="white"/>
<path d="M49.839 39.1011C49.839 39.1011 49.4529 39.7161 49.8216 40.6293C50.0501 41.1911 50.7174 41.8759 51.4724 42.5785C51.4724 42.5785 59.2874 50.2003 60.2358 51.2893C64.5559 56.2768 66.4351 61.1942 66.6108 67.9732C66.7161 72.3285 65.8905 76.157 63.8359 80.6002C60.183 88.5734 52.4732 97.372 40.5838 107.136L42.3227 106.557C43.4466 105.714 44.9746 104.818 48.5571 102.851C56.8286 98.3201 66.1365 94.158 77.5519 89.8729C93.9894 83.6909 121.018 76.4553 136.402 74.1022L138 73.8562L137.754 73.4698C136.349 71.2921 135.383 69.94 134.224 68.4999C130.852 64.3201 126.76 60.9308 121.755 58.1208C114.871 54.2749 105.967 51.2718 94.6921 49.0414C92.5672 48.6198 87.8957 47.812 84.1023 47.2325C76.0589 45.9859 70.8605 45.1252 65.1355 44.1417C63.0809 43.7903 60.0073 43.2636 57.9701 42.8247C56.9164 42.5961 54.897 42.122 53.3164 41.5776C52.052 41.0857 50.2254 40.5939 49.839 39.1011V39.1011ZM54.3703 43.4918C54.3876 43.4745 54.6685 43.5795 55.0376 43.7025C55.7049 43.9306 56.5653 44.1941 57.5842 44.4753C58.355 44.6873 59.1277 44.8922 59.9023 45.0899C60.956 45.3532 61.834 45.5991 61.8515 45.5991C61.9746 45.7221 63.7484 51.3942 64.3455 53.572C64.5735 54.3976 64.7495 55.0999 64.7319 55.0999C64.7139 55.1177 64.521 54.819 64.2927 54.4151C62.2379 50.7973 58.989 47.1269 55.2306 44.1764C54.7391 43.8255 54.3703 43.5093 54.3703 43.4918ZM63.0107 45.8802C63.0985 45.8802 63.4849 45.9329 63.9588 46.0382C66.9444 46.7055 72.3009 47.7241 75.7254 48.3038C76.305 48.3915 76.7617 48.4971 76.7617 48.532C76.7617 48.5673 76.5508 48.69 76.2872 48.8306C75.708 49.1291 73.372 50.5163 72.5995 51.0433C70.65 52.3429 68.894 53.7478 67.6294 55.0122C67.1202 55.5216 66.6809 55.943 66.6809 55.943C66.6809 55.943 66.5759 55.6446 66.4877 55.2756C65.8558 52.8344 64.5385 49.2166 63.3443 46.6703C63.151 46.2665 62.9929 45.8976 62.9929 45.8626C62.9929 45.8977 62.9929 45.8802 63.0107 45.8802V45.8802ZM78.2192 48.7779C78.3246 48.8129 78.5002 49.4101 78.8514 50.7271C79.5013 53.2738 79.7999 56.1188 79.6945 58.7706C79.6592 59.5082 79.6242 60.193 79.5889 60.2811L79.5363 60.4565L78.6232 60.1581C76.744 59.561 73.6884 58.6651 71.0717 57.9277C69.5787 57.5237 68.3673 57.1549 68.3673 57.1198C68.3673 57.0143 70.545 54.8367 71.4757 54.0114C73.2491 52.4481 78.061 48.7251 78.2192 48.7779V48.7779ZM79.431 48.9533C79.4838 48.9009 86.7017 50.1475 89.9858 50.7799C92.4271 51.2539 95.9745 51.9916 96.1851 52.0796C96.2905 52.1146 95.9216 52.3253 94.7449 52.8521C90.1087 54.9422 86.6663 56.821 83.2421 59.1043C82.3464 59.7014 81.5912 60.193 81.5737 60.193C81.5562 60.193 81.5386 59.6839 81.5386 59.0691C81.5386 55.7325 80.8712 52.3605 79.6416 49.5155C79.5188 49.2345 79.4134 48.9711 79.431 48.9533V48.9533ZM98.0993 52.6415C98.1521 52.6942 97.9236 54.1168 97.7129 54.9596C97.0807 57.5764 95.3773 61.4579 93.2876 65.1105C92.9185 65.7603 92.5849 66.2872 92.5495 66.3047C92.5148 66.3222 92.0405 66.0587 91.496 65.7426C89.4589 64.5484 87.1408 63.4245 84.6117 62.3706C83.9095 62.0722 83.2947 61.8262 83.2771 61.7914C83.1539 61.6858 88.809 57.9451 91.7946 56.1538C94.1655 54.7139 98.029 52.5712 98.0993 52.6415V52.6415ZM99.4339 52.8522C99.5921 52.8522 102.788 53.7304 104.456 54.2221C108.584 55.4515 113.325 57.19 116.416 58.595L117.698 59.1747L116.803 59.3853C109.251 61.1238 102.788 63.1261 96.5537 65.655C96.0444 65.8657 95.5878 66.0414 95.553 66.0414C95.5177 66.0414 95.6934 65.6375 95.9217 65.1456C97.8008 61.1591 99.0126 56.9969 99.3109 53.4492C99.3288 53.1155 99.3811 52.8522 99.4339 52.8522V52.8522ZM67.6119 60.1581C67.6645 60.1053 70.1057 60.6849 71.4228 61.0534C73.4248 61.6156 77.6747 63.038 77.6747 63.1435C77.6747 63.161 77.2007 63.5649 76.6389 64.0568C74.3383 65.9711 72.1253 67.9904 69.4733 70.5546C68.6829 71.31 68.0158 71.9246 67.9808 71.9246C67.9455 71.9246 67.9282 71.819 67.9455 71.6785C68.3494 68.728 68.2618 64.9348 67.6998 61.0887C67.6469 60.5968 67.5943 60.1755 67.6119 60.1581V60.1581ZM118.91 60.2109C118.945 60.2458 117.786 62.0722 117.049 63.1082C115.995 64.6185 114.449 66.621 110.954 71.0114C109.111 73.3293 107.038 75.9463 106.353 76.8243C105.651 77.7023 105.071 78.4398 105.054 78.4398C105.036 78.4398 104.808 78.1239 104.562 77.7376C102.595 74.7871 100.242 72.2054 97.4493 69.8873C96.9225 69.4481 96.3432 68.974 96.15 68.8335C95.9567 68.693 95.7986 68.5525 95.7986 68.535C95.7986 68.4825 98.7838 67.2002 101.05 66.2871C105.019 64.6713 110.427 62.7396 114.484 61.4926C116.609 60.8254 118.875 60.1756 118.91 60.2109V60.2109ZM120.262 60.5618C120.332 60.5444 120.754 60.7552 121.263 61.0534C125.531 63.4945 129.711 66.6383 133.013 69.8697C133.943 70.7831 136.244 73.1715 136.208 73.189C136.208 73.189 135.401 73.2592 134.453 73.3293C127.059 73.8915 117.593 75.4543 108.496 77.6495C107.881 77.7898 107.337 77.9128 107.302 77.9128C107.267 77.9128 107.952 77.228 108.812 76.4027C114.151 71.2571 116.592 68.0082 119.472 62.2126C119.876 61.3523 120.227 60.6146 120.262 60.5618C120.245 60.5618 120.245 60.5618 120.262 60.5618V60.5618ZM81.152 64.5662C81.398 64.6186 83.6811 65.6903 85.4021 66.5506C86.9826 67.3406 89.3536 68.6053 89.4765 68.7105C89.494 68.728 88.6509 69.1671 87.6151 69.6765C84.3132 71.3273 81.4859 72.8902 78.5353 74.6815C77.6924 75.1909 76.9899 75.6126 76.9724 75.6126C76.9021 75.6126 76.9196 75.542 77.3939 74.6815C78.9745 71.8016 80.2388 68.3595 80.9591 65.005C81.0291 64.7416 81.0994 64.5662 81.152 64.5662V64.5662ZM78.8689 64.9875C78.9217 65.0403 78.3246 67.2002 77.9559 68.377C77.2356 70.6074 76.024 73.3996 74.8475 75.5071C74.5661 75.9986 74.1448 76.7187 73.9165 77.1226L73.4775 77.825L72.4941 76.8769C71.3527 75.7705 70.4217 75.0856 69.2277 74.4707C68.7532 74.2251 68.3846 74.0141 68.3846 73.9792C68.3846 73.8387 71.3877 71.1167 73.6883 69.1497C75.339 67.7271 78.8163 64.9349 78.8689 64.9875V64.9875ZM92.831 70.7304L93.6916 71.2922C95.6581 72.5744 97.9762 74.2777 99.7503 75.7705C100.751 76.5957 102.683 78.3346 103.069 78.756L103.28 78.9846L101.858 79.3884C93.8142 81.6185 87.5973 83.6031 80.3442 86.2726C79.5363 86.5711 78.8514 86.8169 78.7986 86.8169C78.6935 86.8169 78.6054 86.9046 80.4145 85.2362C85.051 80.969 89.1602 76.2621 92.2161 71.6785L92.831 70.7304V70.7304ZM89.1604 71.6436C89.1954 71.6785 86.7895 75.0679 85.3493 76.9822C83.6283 79.2654 80.5724 83.0937 78.465 85.5873C77.5871 86.6237 76.8321 87.4842 76.7968 87.5018C76.744 87.5193 76.7265 87.256 76.7265 86.852C76.7265 84.7268 76.1822 82.4613 75.2337 80.5297C74.8298 79.7219 74.7595 79.5286 74.8476 79.4409C75.1811 79.1423 80.2916 76.227 83.5229 74.4885C85.7006 73.3294 89.1073 71.6084 89.1604 71.6436V71.6436ZM66.9619 77.0878C67.0147 77.0878 67.4187 77.2983 67.8754 77.5443C68.9993 78.1589 70.0003 78.8438 70.8959 79.5816C70.9309 79.6166 70.4745 79.9855 69.8774 80.4243C68.2089 81.6185 65.6801 83.5329 64.2051 84.7096C62.6593 85.939 62.607 85.974 62.7824 85.7107C63.9416 83.9369 64.5209 82.9358 65.1358 81.6539C65.6801 80.5125 66.2244 79.1602 66.6108 77.9834C66.7512 77.4741 66.9269 77.0878 66.9619 77.0878ZM72.8805 81.724C72.9681 81.7066 73.0738 81.8645 73.5477 82.5671C74.5487 84.0596 75.3215 86.0619 75.515 87.6776L75.5497 88.029L73.1441 88.9598C68.8411 90.628 64.8724 92.279 62.185 93.5081C61.4301 93.8595 60.1129 94.4915 59.2525 94.9133C58.3919 95.3521 57.6894 95.6858 57.6894 95.6683C57.6894 95.6508 58.2337 95.2469 58.901 94.755C64.1524 90.9442 68.7007 86.7643 72.1077 82.5847C72.4766 82.1455 72.8104 81.7415 72.8452 81.724L72.8805 81.724V81.724ZM70.1585 82.3914C70.2288 82.4617 68.2267 84.727 66.8569 86.1144C63.4674 89.5743 60.113 92.279 55.9508 94.9133C55.4239 95.2469 54.9499 95.5453 54.8971 95.5806C54.774 95.6508 54.932 95.4751 56.7586 93.4906C57.9178 92.2436 58.7957 91.19 59.7968 89.8906C60.4641 89.0302 60.5871 88.9072 61.5532 88.2219C64.1348 86.3603 70.0882 82.3211 70.1585 82.3914Z" fill="white"/>
</svg>
