<svg width="170" height="170" viewBox="0 0 170 170" fill="none" xmlns="http://www.w3.org/2000/svg">
<rect width="170" height="170" rx="85" fill="black"/>
<path d="M137.701 135.396L135.434 133.238C134.314 131.761 133.122 130.455 131.824 129.264L131.801 129.246C130.469 128.037 129.084 126.886 127.647 125.795C126.495 125.004 124.912 124.051 122.898 122.937C121.242 122.192 119.948 120.885 119.248 119.262L119.23 119.218L119.015 119.111C119.962 119.017 120.827 118.843 121.657 118.598L121.555 118.625L124.099 117.924C125.152 117.594 126.37 117.38 127.633 117.331H127.66C128.99 117.278 130.244 117.064 131.44 116.711L131.328 116.738C131.906 116.596 132.499 116.434 133.109 116.252C133.719 116.071 134.241 115.909 134.676 115.766V115.013C134.244 114.367 133.722 113.63 133.109 112.801C132.524 112.007 131.868 111.316 131.132 110.714L131.11 110.696C129.238 109.043 127.3 107.444 125.295 105.898C123.527 104.52 121.524 103.115 119.444 101.813L119.14 101.635C118.043 100.912 116.784 100.243 115.459 99.6949L115.307 99.6414C113.974 99.1004 112.66 98.5073 111.366 97.8622C110.933 97.6481 110.429 97.4608 109.907 97.3315L109.858 97.3226C109.336 97.2156 108.889 96.948 108.564 96.569L108.559 96.5645C107.943 95.7529 107.403 94.8299 106.975 93.8488L106.939 93.7597C106.508 92.7519 106.041 91.7842 105.538 90.8567C104.458 88.7697 103.413 86.6486 102.405 84.4933C101.396 82.338 100.428 80.1797 99.4995 78.0185C98.8539 76.5796 98.2604 75.1422 97.7189 73.7064C97.1209 72.1278 96.447 70.7766 95.6615 69.5057L95.7195 69.6083C93.7916 66.3263 91.8681 63.5259 89.7795 60.8637L89.9045 61.0331C87.8382 58.4289 85.696 56.1012 83.3932 53.9429L83.3575 53.9117C81.0859 51.7802 78.6403 49.7467 76.0742 47.8649L75.8555 47.7089C73.1897 45.7735 70.274 43.8679 67.1084 41.9921C65.8365 41.2429 64.3593 40.632 62.8018 40.2396L62.6857 40.2128L57.7186 38.9732L54.9115 38.7591C53.9773 38.6878 53.0416 38.6521 52.1044 38.6521C51.4439 38.3043 50.8771 37.8896 50.3773 37.408C49.8863 36.9397 49.3553 36.4983 48.8019 36.0925L48.7572 36.0613C46.0572 34.4871 42.9199 33.0468 39.6397 31.9141L39.2604 31.7982C38.399 31.2943 37.3637 31 36.2613 31C35.4759 31 34.7217 31.1516 34.0344 31.4236L34.0746 31.4103C32.3787 32.0836 31.0845 33.4526 30.5266 35.156L30.5132 35.2006C30.1874 35.9676 30 36.855 30 37.7915C30 39.4325 30.5802 40.9352 31.5486 42.108L31.5397 42.0946C33.1582 44.25 34.3989 45.9445 35.2617 47.1782C35.9073 48.0433 36.5737 48.9426 37.261 49.8761C37.8903 50.7144 38.4481 51.6731 38.8989 52.6854L38.9346 52.779C39.1845 53.3097 39.4032 53.9429 39.5638 54.594L39.5772 54.6653C39.72 55.2777 39.9 55.9436 40.1172 56.6631C40.7628 58.316 41.3742 60.0105 41.9514 61.7466C42.5807 63.6418 43.2769 65.2471 44.0847 66.7767L43.9999 66.5983C44.4313 67.3891 44.8642 68.162 45.2986 68.9171C45.7329 69.6722 46.2 70.4095 46.6999 71.1289C46.99 71.5659 47.3559 71.9271 47.7754 72.208L47.7888 72.217C48.2306 72.538 48.5207 73.0419 48.543 73.6127V73.6172C48.0343 74.3663 47.6906 75.2626 47.5746 76.2303L47.5701 76.2571C47.4139 77.3852 47.1908 78.3886 46.8873 79.3562L46.923 79.2225C45.9278 82.1923 45.3566 85.617 45.3566 89.1711C45.3566 90.3216 45.4146 91.4542 45.5351 92.5735L45.5217 92.4353C45.7895 96.7072 47.0792 100.631 49.1455 104.029L49.083 103.918C49.9622 105.233 50.9039 106.379 51.9437 107.427C52.6935 108.266 53.7824 108.792 54.9963 108.792C55.6746 108.792 56.3173 108.627 56.8796 108.333L56.8573 108.341C58.4193 107.78 59.5305 106.353 59.6108 104.654V104.645C59.825 102.531 60.1464 100.64 60.5882 98.7942L60.5302 99.0929C60.6373 98.812 60.6998 98.4909 60.6998 98.152C60.6998 98.0851 60.6953 98.0183 60.6908 97.9514V97.9603C60.6551 97.6362 60.853 97.33 61.2844 97.0417V97.2557C61.7158 98.2635 62.1651 99.2698 62.6322 100.275C63.0993 101.279 63.5842 102.286 64.087 103.294C65.4036 105.296 66.8004 107.044 68.3357 108.654L68.3223 108.64C69.8619 110.299 71.54 111.788 73.3519 113.104L73.45 113.171C74.3962 113.893 75.2263 114.674 75.976 115.525L75.9939 115.543C76.699 116.373 77.5425 117.055 78.493 117.568L78.5377 117.59V117.483H78.7519C78.5778 117.095 78.2967 116.783 77.9486 116.569L77.9396 116.564C77.5871 116.368 77.2836 116.172 76.998 115.958L77.0203 115.971C76.3747 115.326 75.7082 114.607 75.021 113.813C74.3337 113.019 73.7044 112.264 73.1332 111.548C71.6218 109.461 70.1803 107.28 68.8087 105.006C67.4371 102.732 66.1414 100.42 64.9216 98.0718C64.3444 96.9213 63.7865 95.7351 63.248 94.5133C62.7095 93.2914 62.1874 92.1053 61.6816 90.9548C61.4629 90.5133 61.3112 90.005 61.2532 89.4654V89.4431C61.2264 88.9303 60.9318 88.4888 60.5034 88.2614L60.4945 88.2569C59.9545 89.1755 59.3565 89.9693 58.6736 90.6872L58.6781 90.6828C57.9685 91.4275 57.3883 92.3059 56.9733 93.2691L56.951 93.3271C56.3217 94.8522 55.8621 96.6225 55.6612 98.4731L55.6523 98.5578C55.4381 100.463 55.2224 102.423 55.0052 104.435L54.791 104.542L54.6839 104.649C53.5235 104.413 52.5685 103.673 52.0508 102.674L52.0419 102.651C51.5004 101.608 51.0154 100.582 50.587 99.5745C49.4802 96.734 48.7929 93.4475 48.6992 90.0139V89.9737C48.6591 89.4297 48.6412 88.792 48.6412 88.1544C48.6412 85.1845 49.1098 82.3216 49.9756 79.6372L49.922 79.8334C50.1363 79.0426 50.6034 77.7108 51.3234 75.8379C52.0434 73.965 52.1877 72.6703 51.7563 71.9539C51.5331 71.2181 51.1181 70.5982 50.5736 70.1256L50.5692 70.1211C50.0247 69.6484 49.5293 69.1534 49.0741 68.6273L49.0607 68.6094C48.5579 67.884 48.0729 67.1111 47.6058 66.2906C47.1387 65.4701 46.7252 64.6615 46.3652 63.8648C45.6288 62.1613 44.8746 60.0253 44.2498 57.8314L44.1516 57.4345C43.442 54.915 42.6521 52.7835 41.7149 50.7322L41.8309 51.0176C41.3356 49.8939 40.7599 48.9218 40.0904 48.0344L40.1172 48.0701C39.3913 47.1009 38.7427 46.1838 38.1714 45.3187C37.4455 44.3852 36.7255 43.4859 36.0114 42.6208C35.284 41.7424 34.6369 40.7524 34.1103 39.6911L34.0701 39.6019C33.8559 39.1694 33.6684 38.6655 33.539 38.1437L33.5301 38.0947C33.481 37.9386 33.4542 37.7558 33.4542 37.573C33.4542 37.2073 33.5613 36.8639 33.7488 36.5785L33.7443 36.5875C33.7934 36.3377 33.9094 36.1192 34.0701 35.9409C34.2441 35.7848 34.4673 35.6688 34.7083 35.6198H34.7172C35.0965 35.3745 35.5562 35.2274 36.0561 35.2274C36.4309 35.2274 36.7924 35.3121 37.1093 35.4637L37.0959 35.4593C38.0732 35.7357 38.8632 36.0122 39.6352 36.3288L39.4746 36.2708C40.8402 36.8476 42.1002 37.405 43.2546 37.9431C44.5845 38.5763 45.7181 39.2452 46.7891 39.9899L46.7088 39.9364C47.286 40.2961 47.8617 40.6915 48.4359 41.1225C49.0101 41.5536 49.6215 41.9861 50.2701 42.4202H51.783C52.9344 42.4202 54.1573 42.4752 55.4515 42.5852C56.7591 42.6877 57.9685 42.933 59.1199 43.3165L59.0128 43.2853C61.1594 43.9229 63.0026 44.6766 64.752 45.5818L64.569 45.4971C66.3333 46.3949 68.0069 47.3477 69.5897 48.3554C72.2183 49.992 74.4899 51.6687 76.6276 53.5014L76.5517 53.439C78.7831 55.3476 80.8092 57.3052 82.7104 59.3743L82.755 59.4278C84.6116 61.4523 86.3833 63.6507 88.0033 65.9562L88.1417 66.1657C89.6322 68.2705 91.1362 70.7053 92.4885 73.2292L92.6759 73.6082C93.0374 74.295 93.4033 75.1378 93.7202 75.9984L93.7693 76.1456C94.0579 76.972 94.3807 77.8193 94.7377 78.6873C95.5291 80.4859 96.3771 82.3008 97.2815 84.1321C98.186 85.9634 99.0339 87.7441 99.8253 89.4743L102.2 94.6515C103.034 96.462 103.967 98.0227 105.051 99.4631L105.002 99.3962C105.908 100.364 107.118 101.042 108.474 101.278L108.51 101.282C110.152 101.693 111.536 102.156 112.875 102.705L112.665 102.629C113.303 102.919 114.124 103.227 114.968 103.499L115.146 103.548C116.092 103.838 116.913 104.221 117.668 104.703L117.628 104.68C119.087 105.496 120.323 106.299 121.501 107.173L121.408 107.106C122.63 108.004 123.853 108.851 125.076 109.648C125.653 110.079 126.622 110.708 127.981 111.534C129.341 112.361 130.061 113.134 130.141 113.853C129.633 113.835 129.03 113.822 128.428 113.822C126.232 113.822 124.072 113.965 121.956 114.241L122.206 114.214C119.814 114.535 117.645 115.12 115.606 115.953L115.784 115.891C115.28 116.109 114.678 116.31 114.053 116.466L113.968 116.484C113.334 116.578 112.843 117.086 112.781 117.719V117.724C113.053 118.063 113.272 118.455 113.419 118.883L113.428 118.91C113.58 119.365 113.763 119.757 113.986 120.123L113.972 120.096C114.504 121.037 115.075 121.849 115.717 122.598L115.7 122.575C116.329 123.351 117.038 124.025 117.824 124.6L117.855 124.622C118.581 125.199 119.337 125.792 120.122 126.401C120.841 126.963 121.653 127.516 122.496 128.016L122.604 128.074C123.871 128.85 125.344 129.59 126.879 130.21L127.084 130.281C128.753 130.95 130.186 131.726 131.516 132.649L131.444 132.6C132.31 133.102 133.173 133.66 134.033 134.272C134.893 134.884 135.72 135.478 136.514 136.051C136.84 136.372 137.126 136.729 137.367 137.117L137.38 137.139C137.786 137.603 138.348 137.92 138.987 138H139V137.786C138.607 137.487 138.317 137.072 138.179 136.595L138.174 136.577C138.063 136.123 137.898 135.726 137.675 135.36L137.683 135.378L137.701 135.396ZM54.7999 49.7557C54.2227 49.7557 53.6827 49.7735 53.1799 49.8092C52.6667 49.8448 52.1892 49.9385 51.7384 50.0901L51.7786 50.0767V50.1837H51.9928C52.2814 50.6148 52.6444 51.0994 53.0817 51.6375C53.5191 52.1756 53.9148 52.6973 54.2688 53.2027L55.9959 56.7612L56.2102 56.6541C56.7145 56.2885 57.1027 55.798 57.3348 55.2227L57.3437 55.2004C57.5758 54.5806 57.7097 53.8582 57.7097 53.109C57.7097 53.0288 57.7097 52.9485 57.7052 52.8682V52.8816C57.5044 52.6854 57.3393 52.4535 57.2232 52.1949L57.2188 52.1815L56.8573 51.3699C56.6207 50.9953 56.2905 50.701 55.9022 50.5137L55.8888 50.5093C55.4693 50.3086 55.1123 50.0544 54.7999 49.7557V49.7557Z" fill="white"/>
</svg>
