<svg width="170" height="170" viewBox="0 0 170 170" fill="none" xmlns="http://www.w3.org/2000/svg">
<rect width="170" height="170" rx="85" fill="black"/>
<path d="M53.2211 112.162V95.9352C53.3006 91.5603 56.4664 82.7153 68.4931 82.3335C80.5199 81.9517 94.8216 82.1744 100.469 82.3335C103.543 82.5531 109.261 79.6928 112.28 72.7884V38.1876C110.411 34.6878 103.905 27.5926 92.833 27.2108C81.7608 26.829 73.2657 27.0517 70.4022 27.2108C66.1864 28.563 57.6118 32.6515 57.0391 38.1876C56.4664 43.7237 56.8005 50.3576 57.0391 52.9824H84.7197V56.3232H44.3919C38.824 56.9595 27.5926 62.0025 27.2108 77.0837C26.829 92.1649 27.0517 94.1852 27.2108 93.3103C27.7676 98.7987 31.3152 110.253 41.0511 112.162H53.2211Z" fill="white" stroke="white" stroke-width="0.834541"/>
<path d="M117.052 57.2777V73.5043C116.973 77.8791 113.807 86.7242 101.78 87.106C89.7533 87.4878 75.4516 87.2651 69.8041 87.106C66.7297 86.8864 61.0119 89.7467 57.9936 96.651V131.252C59.8624 134.752 66.3679 141.847 77.4402 142.229C88.5124 142.61 97.0075 142.388 99.871 142.229C104.087 140.876 112.661 136.788 113.234 131.252C113.807 125.716 113.473 119.082 113.234 116.457H85.5535V113.116H125.881C131.449 112.48 142.681 107.437 143.062 92.3558C143.444 77.2746 143.221 75.2542 143.062 76.1292C142.506 70.6408 138.958 59.1867 129.222 57.2777H117.052Z" fill="white" stroke="white" stroke-width="0.834541"/>
<circle cx="69.2089" cy="40.8125" r="5.4884" fill="black" stroke="white" stroke-width="1.66908"/>
<circle cx="100.23" cy="127.672" r="5.4884" fill="black" stroke="white" stroke-width="1.66908"/>
</svg>
