<svg width="170" height="170" viewBox="0 0 170 170" fill="none" xmlns="http://www.w3.org/2000/svg">
<rect width="170" height="170" rx="85" fill="black"/>
<path d="M149 84.513C149 76.0831 138.464 68.0942 122.311 63.14C126.039 46.6434 124.382 33.5188 117.082 29.3168C115.399 28.3312 113.432 27.8643 111.283 27.8643V33.6485C112.474 33.6485 113.432 33.8819 114.234 34.3229C117.755 36.346 119.282 44.0496 118.091 53.9579C117.807 56.3961 117.341 58.964 116.771 61.5837C111.697 60.3387 106.158 59.379 100.333 58.7565C96.8384 53.9579 93.2142 49.6004 89.5642 45.7875C98.0033 37.9282 105.925 33.6225 111.309 33.6225V27.8383C104.19 27.8383 94.871 32.9222 85.4482 41.7411C76.0255 32.9741 66.7063 27.9421 59.5874 27.9421V33.7263C64.946 33.7263 72.8932 38.0061 81.3322 45.8134C77.7081 49.6263 74.084 53.9579 70.6411 58.7565C64.7907 59.379 59.2509 60.3387 54.1771 61.6097C53.5817 59.0159 53.1417 56.4999 52.831 54.0876C51.6143 44.1793 53.1158 36.4757 56.6105 34.4266C57.3871 33.9597 58.3967 33.7522 59.5874 33.7522V27.968C57.413 27.968 55.4456 28.4349 53.7371 29.4206C46.4629 33.6225 44.832 46.7212 48.5856 63.1659C32.4841 68.1461 22 76.109 22 84.513C22 92.9428 32.5359 100.932 48.6892 105.886C44.9615 122.382 46.6182 135.507 53.9183 139.709C55.6009 140.695 57.5683 141.162 59.7428 141.162C66.8616 141.162 76.1808 136.078 85.6035 127.259C95.0263 136.026 104.345 141.058 111.464 141.058C113.639 141.058 115.606 140.591 117.315 139.605C124.589 135.403 126.22 122.305 122.466 105.86C138.516 100.906 149 92.9169 149 84.513V84.513ZM115.296 67.2123C114.338 70.5583 113.147 74.008 111.801 77.4578C110.739 75.3828 109.626 73.3077 108.41 71.2327C107.219 69.1576 105.95 67.1345 104.682 65.1632C108.358 65.7079 111.904 66.3823 115.296 67.2123ZM103.439 94.8363C101.42 98.3379 99.3494 101.658 97.2008 104.745C93.3437 105.082 89.4348 105.263 85.5 105.263C81.5911 105.263 77.6822 105.082 73.851 104.771C71.7024 101.684 69.6056 98.3898 67.5864 94.9141C65.619 91.5162 63.8329 88.0665 62.202 84.5908C63.807 81.1151 65.619 77.6394 67.5605 74.2415C69.5797 70.7399 71.6506 67.4198 73.7992 64.3332C77.6563 63.996 81.5652 63.8144 85.5 63.8144C89.4089 63.8144 93.3178 63.996 97.149 64.3072C99.2976 67.3939 101.394 70.688 103.414 74.1637C105.381 77.5616 107.167 81.0113 108.798 84.487C107.167 87.9627 105.381 91.4384 103.439 94.8363ZM111.801 91.4643C113.199 94.94 114.39 98.4157 115.373 101.788C111.982 102.618 108.41 103.318 104.708 103.863C105.976 101.865 107.245 99.8164 108.436 97.7154C109.626 95.6404 110.739 93.5394 111.801 91.4643ZM85.5518 119.14C83.1443 116.65 80.7369 113.875 78.3553 110.84C80.6851 110.944 83.0667 111.022 85.4741 111.022C87.9075 111.022 90.3149 110.97 92.6706 110.84C90.3408 113.875 87.9334 116.65 85.5518 119.14ZM66.2921 103.863C62.6162 103.318 59.0697 102.644 55.6786 101.814C56.6364 98.4676 57.8271 95.0179 59.1733 91.5681C60.2346 93.6431 61.3477 95.7182 62.5644 97.7932C63.7811 99.8683 65.0236 101.891 66.2921 103.863ZM85.4223 49.8857C87.8298 52.3757 90.2373 55.1511 92.6188 58.1858C90.289 58.0821 87.9075 58.0043 85.5 58.0043C83.0667 58.0043 80.6592 58.0562 78.3035 58.1858C80.6333 55.1511 83.0408 52.3757 85.4223 49.8857ZM66.2662 65.1632C64.9978 67.1604 63.7293 69.2095 62.5385 71.3105C61.3477 73.3855 60.2346 75.4606 59.1733 77.5356C57.7754 74.0599 56.5846 70.5842 55.6009 67.2123C58.9921 66.4082 62.5644 65.7079 66.2662 65.1632V65.1632ZM42.8388 97.6376C33.6749 93.721 27.7468 88.5852 27.7468 84.513C27.7468 80.4407 33.6749 75.279 42.8388 71.3883C45.065 70.4286 47.4984 69.5726 50.0094 68.7686C51.4849 73.8524 53.4264 79.1438 55.8339 84.5648C53.4523 89.9599 51.5367 95.2254 50.087 100.283C47.5243 99.4792 45.0909 98.5973 42.8388 97.6376ZM56.7658 134.703C53.2452 132.68 51.7179 124.976 52.9087 115.068C53.1934 112.63 53.6594 110.062 54.2289 107.442C59.3027 108.687 64.8424 109.647 70.6669 110.269C74.1616 115.068 77.7858 119.426 81.4358 123.238C72.9967 131.098 65.0754 135.403 59.691 135.403C58.5261 135.377 57.5424 135.144 56.7658 134.703V134.703ZM118.169 114.938C119.386 124.847 117.884 132.55 114.39 134.599C113.613 135.066 112.603 135.274 111.413 135.274C106.054 135.274 98.1068 130.994 89.6678 123.187C93.2919 119.374 96.916 115.042 100.359 110.243C106.209 109.621 111.749 108.661 116.823 107.39C117.418 110.01 117.884 112.526 118.169 114.938V114.938ZM128.135 97.6376C125.909 98.5973 123.476 99.4533 120.965 100.257C119.489 95.1735 117.548 89.8821 115.14 84.4611C117.522 79.066 119.437 73.8005 120.887 68.7426C123.45 69.5467 125.883 70.4286 128.161 71.3883C137.325 75.3049 143.253 80.4407 143.253 84.513C143.227 88.5852 137.299 93.7469 128.135 97.6376V97.6376Z" fill="white"/>
<path d="M85.4741 96.3667C92.0078 96.3667 97.3043 91.0596 97.3043 84.513C97.3043 77.9664 92.0078 72.6593 85.4741 72.6593C78.9405 72.6593 73.6439 77.9664 73.6439 84.513C73.6439 91.0596 78.9405 96.3667 85.4741 96.3667Z" fill="white"/>
</svg>
